<?xml version="1.0"?>
<svg width="384" height="512" xmlns="http://www.w3.org/2000/svg" xmlns:svg="http://www.w3.org/2000/svg">
 <!--! Font Awesome Pro 6.4.2 by @fontawesome - https://fontawesome.com License - https://fontawesome.com/license (Commercial License) Copyright 2023 Fonticons, Inc. -->
 <g class="layer">
  <title>Layer 1</title>
  <path d="m64,0c-35.3,0 -64,28.7 -64,64l0,384c0,35.3 28.7,64 64,64l256,0c35.3,0 64,-28.7 64,-64l0,-288l-128,0c-17.7,0 -32,-14.3 -32,-32l0,-128l-160,0zm192,0l0,128l128,0l-128,-128zm-144,256l160,0c8.8,0 16,7.2 16,16s-7.2,16 -16,16l-160,0c-8.8,0 -16,-7.2 -16,-16s7.2,-16 16,-16zm0,64l160,0c8.8,0 16,7.2 16,16s-7.2,16 -16,16l-160,0c-8.8,0 -16,-7.2 -16,-16s7.2,-16 16,-16zm0,64l160,0c8.8,0 16,7.2 16,16s-7.2,16 -16,16l-160,0c-8.8,0 -16,-7.2 -16,-16s7.2,-16 16,-16z" fill="#d1d5db" fill-opacity="0.8" id="svg_1"/>
 </g>
</svg>